<?xml version="1.0" encoding="utf-8"?><!-- Uploaded to: SVG Repo, www.svgrepo.com, Generator: SVG Repo Mixer Tools -->
<svg width="800px" height="800px" viewBox="0 0 24 24" fill="none" xmlns="http://www.w3.org/2000/svg">
<path fill-rule="evenodd" clip-rule="evenodd" d="M7.78799 2H16.212C17.0305 1.99999 17.7061 1.99998 18.2561 2.04565C18.8274 2.0931 19.3523 2.19496 19.8439 2.45035C20.5745 2.82985 21.1702 3.42553 21.5497 4.1561C21.805 4.64774 21.9069 5.17258 21.9543 5.74393C22 6.29394 22 6.96949 22 7.78802V11.212C22 12.0305 22 12.7061 21.9543 13.2561C21.9069 13.8274 21.805 14.3523 21.5497 14.8439C21.1702 15.5745 20.5745 16.1702 19.8439 16.5497C19.3523 16.805 18.8274 16.9069 18.2561 16.9544C17.7061 17 17.0305 17 16.212 17H13V19H17C17.5523 19 18 19.4477 18 20C18 20.5523 17.5523 21 17 21H7C6.44772 21 6 20.5523 6 20C6 19.4477 6.44772 19 7 19H11V17H7.78798C6.96946 17 6.29393 17 5.74393 16.9544C5.17258 16.9069 4.64774 16.805 4.1561 16.5497C3.42553 16.1702 2.82985 15.5745 2.45035 14.8439C2.19496 14.3523 2.0931 13.8274 2.04565 13.2561C1.99998 12.7061 1.99999 12.0305 2 11.212V7.78799C1.99999 6.96947 1.99998 6.29393 2.04565 5.74393C2.0931 5.17258 2.19496 4.64774 2.45035 4.1561C2.82985 3.42553 3.42553 2.82985 4.1561 2.45035C4.64774 2.19496 5.17258 2.0931 5.74393 2.04565C6.29393 1.99998 6.96947 1.99999 7.78799 2ZM16.17 15C17.041 15 17.6331 14.9992 18.0905 14.9612C18.536 14.9242 18.7634 14.8572 18.9219 14.7748C19.2872 14.5851 19.5851 14.2872 19.7748 13.9219C19.8572 13.7634 19.9242 13.536 19.9612 13.0905C19.9992 12.6331 20 12.041 20 11.17V7.83C20 6.95898 19.9992 6.36686 19.9612 5.90945C19.9242 5.46401 19.8572 5.23663 19.7748 5.07805C19.5851 4.71277 19.2872 4.41493 18.9219 4.22517C18.7634 4.1428 18.536 4.07578 18.0905 4.03879C17.6331 4.0008 17.041 4 16.17 4H7.83C6.95898 4 6.36686 4.0008 5.90945 4.03879C5.46401 4.07578 5.23663 4.1428 5.07805 4.22517C4.71277 4.41493 4.41493 4.71277 4.22517 5.07805C4.1428 5.23663 4.07578 5.46401 4.03879 5.90945C4.0008 6.36686 4 6.95898 4 7.83V11.17C4 12.041 4.0008 12.6331 4.03879 13.0905C4.07578 13.536 4.1428 13.7634 4.22517 13.9219C4.41493 14.2872 4.71277 14.5851 5.07805 14.7748C5.23663 14.8572 5.46401 14.9242 5.90945 14.9612C6.36686 14.9992 6.95898 15 7.83 15H16.17Z" fill="#0F1729"/>
</svg>