<?xml version="1.0" encoding="iso-8859-1"?>
<!-- Uploaded to: SVG Repo, www.svgrepo.com, Generator: SVG Repo Mixer Tools -->
<svg fill="#000000" height="800px" width="800px" version="1.1" id="Layer_1" xmlns="http://www.w3.org/2000/svg" xmlns:xlink="http://www.w3.org/1999/xlink" 
	 viewBox="0 0 511.998 511.998" xml:space="preserve">
<g>
	<g>
		<path d="M481.771,180.215c-8.032-18.891-20.464-35.363-36.296-48.461c12.603-3.935,23.805-7.896,29.051-9.791
			c7.917-2.86,12.471-11.161,10.629-19.375c-11.546-51.496-71.993-74.378-119.825-51.925c-3.721-9.587-9.225-18.418-16.296-25.974
			C325.289-0.674,289.196-7.214,259.221,8.421c-6.811,3.552-10.325,11.291-8.514,18.757c2.505,10.327,5.298,21.211,8.797,31.687
			c-54.797-9.37-113.422,11.635-141.22,54.955c-5.738,8.94-1.772,20.898,8.146,24.655c26.558,10.06,55.902,15.804,87.661,17.187
			c-7.628,8.889-14.102,18.629-19.265,29.056c-11.81,23.852-15.937,50.103-11.621,73.916c1.793,9.902,11.879,15.985,21.479,12.957
			c7.278-2.299,14.86-5.407,22.547-9.102c-3.2,6.569-6.31,13.259-9.331,20.102c-18.902,42.831-31.65,85.091-39.783,131.961
			c-54.826,5.549-157.339,26.024-157.339,80.71c0,9.242,7.493,16.736,16.736,16.736h401.653c9.242,0,16.736-7.493,16.736-16.736
			c0-53.826-99.391-74.441-153.517-80.306c-0.318-30.855,2.588-59.937,8.991-90.412c4.628-22.014,10.598-42.616,18.294-62.97
			c7.771,15.37,16.737,29.334,26.348,39.044c6.584,6.65,17.331,6.593,23.847-0.095c18.139-18.615,29.138-40.385,32.676-64.24
			c15.879,12.959,32.36,24.638,47.801,33.762c8.775,5.185,20.133,1.368,23.982-8.087
			C494.336,237.371,493.406,207.576,481.771,180.215z M407.633,478.529H69.05c39.462-25.428,117.256-33.471,169.291-33.471
			C293.992,445.058,369.635,454.045,407.633,478.529z M278.622,317.664c-6.712,31.945-9.856,62.46-9.722,94.672
			c-10.038-0.495-20.244-0.749-30.559-0.749c-8.685,0-17.292,0.179-25.788,0.531c7.692-41.154,19.048-77.668,35.968-116.01
			c11.41-25.847,24.092-49.421,38.687-71.996c7.569-5.99,14.642-12.05,20.944-17.907c1.08,3.803,2.286,7.736,3.602,11.746
			C296.608,250.56,286.029,282.428,278.622,317.664z M457.756,228.617c-17.367-12.108-35.179-26.8-50.937-42.139
			c-5.211-5.072-13.106-6.192-19.519-2.771c-6.418,3.421-9.885,10.598-8.578,17.752c4.108,22.485,0.527,42.742-10.648,60.453
			c-19.208-30.379-33.275-79.335-32.965-91.223c0.194-7.422-4.532-14.081-11.599-16.349c-7.068-2.269-14.788,0.397-18.948,6.546
			c-11.026,16.288-50.826,50.892-89.054,70.11c3.008-27.112,19.521-58.454,54.404-78.68c6.77-3.926,9.91-12.026,7.553-19.49
			c-2.356-7.464-9.592-12.293-17.376-11.618c-35.946,3.108-68.895,0.888-98.301-6.596c31.558-26.507,83.425-32.366,122.756-12.925
			c7.07,3.493,15.617,1.572,20.511-4.611c4.893-6.183,4.8-14.945-0.224-21.021c-8.121-9.822-13.95-27.438-17.934-42.126
			c13.46-2.264,27.36,2.521,37.734,13.605c0,0,0,0,0.001,0c7.815,8.35,12.374,19.427,12.834,31.188
			c0.254,6.517,4.276,12.289,10.3,14.786c6.024,2.497,12.949,1.262,17.74-3.163c24.118-22.284,64.98-18.601,81.225,5.883
			c-17.281,5.751-36.058,11.238-46.651,12.552c-7.569,0.938-13.542,6.883-14.519,14.446c-0.976,7.564,3.292,14.83,10.375,17.659
			c25.473,10.176,45.031,28.788,55.074,52.409C455.995,205.015,458.26,217.186,457.756,228.617z"/>
	</g>
</g>
</svg>